<svg xmlns="http://www.w3.org/2000/svg" width="600" height="150" viewBox="0 0 600 150"><defs><linearGradient id="bg" x1="0" y1="0" x2="0" y2="1"><stop offset="0%" stop-color="#0A2E1A"/><stop offset="100%" stop-color="#14532D"/></linearGradient><linearGradient id="goldLine" x1="0" y1="0" x2="1" y2="0"><stop offset="0%" stop-color="#C4923A" stop-opacity="0"/><stop offset="50%" stop-color="#C4923A" stop-opacity="1"/><stop offset="100%" stop-color="#C4923A" stop-opacity="0"/></linearGradient></defs><rect width="600" height="150" fill="url(#bg)"/><rect x="0" y="0" width="600" height="2" fill="url(#goldLine)"/><rect x="0" y="148" width="600" height="2" fill="url(#goldLine)"/><g transform="translate(160,30)"><path d="M10 30c0-8.3 6.7-15 15-15 8.3 0 15 6.7 15 15s-6.7 15-15 15c-1.5 0-3-.2-4.4-.7" stroke="#22C55E" stroke-width="2.5" fill="none" stroke-linecap="round"/><path d="M40 30c0-8.3-6.7-15-15-15-2.8 0-5.5.8-7.8 2.2" stroke="#C4923A" stroke-width="2" fill="none" stroke-linecap="round" opacity=".5"/><path d="M17.2 17.2c-3.5 3.5-5.7 8.3-5.7 13.8 0 5.2 2 10 5.3 13.5" stroke="#22C55E" stroke-width="2" fill="none" stroke-linecap="round"/></g><text x="280" y="72" font-family="-apple-system,BlinkMacSystemFont,'Segoe UI',Roboto,Helvetica,Arial,sans-serif" font-size="28" font-weight="700" fill="#fff" letter-spacing="2" text-anchor="middle">AgriIntel</text><text x="280" y="100" font-family="-apple-system,BlinkMacSystemFont,'Segoe UI',Roboto,Helvetica,Arial,sans-serif" font-size="14" font-weight="400" fill="#C4923A" letter-spacing="4" text-anchor="middle">PLATEFORME INTELLIGENTE DE DÉCISION AGRICOLE</text></svg>
